# AST/ASF file generated using VICON BodyLanguage
# -----------------------------------------------
:version 1.10
:name VICON
:units
  mass 1.0
  length 0.45
  angle deg
:documentation
   .ast/.asf automatically generated from VICON data using
   VICON BodyBuilder and BodyLanguage model FoxedUp or BRILLIANT.MOD
:root
   order TX TY TZ RX RY RZ
   axis XYZ
   position 0 0 0  
   orientation 0 0 0 
:bonedata
  begin
     id 1 
     name lhipjoint
     direction 0.584852 -0.759097 0.285867 
     length 2.43633 
     axis 0 0 0  XYZ
  end
  begin
     id 2 
     name lfemur
     direction 0.34202 -0.939693 0  
     length 7.14704  
     axis 0 0 20  XYZ
    dof rx ry rz
    limits (-160.0 20.0)
           (-70.0 70.0)
           (-60.0 70.0)
  end
  begin
     id 3 
     name ltibia
     direction 0.342022 -0.939692 0   
     length 7.68483   
     axis 0 0 20   XYZ
    dof rx
    limits (-10.0 170.0)
  end
  begin
     id 4 
     name lfoot
     direction 0.0999605 -0.274639 0.956337   
     length 2.40452   
     axis -90 7.62852e-016 20   XYZ
    dof rx rz
    limits (-45.0 90.0)
           (-70.0 20.0)
  end
  begin
     id 5 
     name ltoes
     direction 1.53468e-011 -4.21881e-011 1   
     length 1.19837   
     axis -90 7.62852e-016 20   XYZ
    dof rx
    limits (-90.0 20.0)
  end
  begin
     id 6 
     name rhipjoint
     direction -0.569886 -0.769002 0.289597   
     length 2.40495  
     axis 0 0 0  XYZ 
  end
  begin
     id 7 
     name rfemur
     direction -0.34202 -0.939693 0   
     length 7.45086   
     axis 0 0 -20   XYZ
    dof rx ry rz
    limits (-160.0 20.0)
           (-70.0 70.0)
           (-70.0 60.0)
  end
  begin
     id 8 
     name rtibia
     direction -0.34202 -0.939693 0   
     length 7.76831   
     axis 0 0 -20   XYZ
    dof rx
    limits (-10.0 170.0)
 end
 begin
     id 9 
     name rfoot
     direction -0.0798572 -0.219406 0.97236   
     length 2.35911  
     axis -90 -7.62852e-016 -20   XYZ
    dof rx rz
    limits (-45.0 90.0)
           (-20.0 70.0)
  end
  begin
     id 10 
     name rtoes
     direction -1.53469e-011 -4.21728e-011 1   
     length 1.18261   
     axis -90 -7.62852e-016 -20   XYZ
    dof rx
    limits (-90.0 20.0)
  end
  begin
     id 11 
     name lowerback
     direction 0.0242088 0.999437 0.0232389   
     length 2.1561   
     axis 0 0 0   XYZ
    dof rx ry rz
    limits (-20.0 45.0)
           (-30.0 30.0)
           (-30.0 30.0)
  end
  begin
     id 12 
     name upperback
     direction -0.0356893 0.999013 -0.0264323   
     length 2.14431   
     axis 0 0 0   XYZ
    dof rx ry rz
    limits (-20.0 45.0)
           (-30.0 30.0)
           (-30.0 30.0)
  end
  begin
     id 13 
     name thorax
     direction -0.0472163 0.998194 -0.0371284   
     length 2.16169   
     axis 0 0 0   XYZ
    dof rx ry rz
    limits (-20.0 45.0)
           (-30.0 30.0)
           (-30.0 30.0)
  end
  begin
     id 14 
     name lowerneck
     direction 0.00863244 0.999921 0.00911972   
     length 1.58651   
     axis 0 0 0   XYZ
    dof rx ry rz
    limits (-20.0 45.0)
           (-30.0 30.0)
           (-30.0 30.0)
  end
  begin
     id 15 
     name upperneck
     direction 0.149523 0.979068 -0.138086   
     length 1.57486   
     axis 0 0 0   XYZ
    dof rx ry rz
    limits (-20.0 45.0)
           (-30.0 30.0)
           (-30.0 30.0)
  end
  begin
     id 16
     name head
     direction 0.0445219 0.997708 -0.0509576  
     length 1.6019  
     axis 0 0 0   XYZ
    dof rx ry rz
    limits (-20.0 45.0)
           (-30.0 30.0)
           (-30.0 30.0)
  end
  begin
     id 17 
     name lclavicle
     direction 0.911271 0.381667 -0.154644  
     length 3.80848  
     axis 0 0 0   XYZ
    dof ry rz
    limits (-20.0 10.0)
           (0.0 20.0)
  end
  begin
     id 18 
     name lhumerus
     direction 1 -4.49003e-011 2.1308e-027   
     length 5.19069   
     axis 180 -30 -90   XYZ
    dof rx ry rz
    limits (-60.0 90.0)
           (-90.0 90.0)
           (-90.0 90.0)
  end
  begin
     id 19
     name lradius
     direction 1 -4.48914e-011 4.01554e-027   
     length 3.30016   
     axis 180 -30 -90   XYZ
    dof rx
    limits (-10.0 170.0)
  end
  begin
     id 20
     name lwrist
     direction 1 -4.49003e-011 1.1934e-026   
     length 1.65008   
     axis -8.46377e-015 90 90   XYZ
    dof ry
    limits (-180.0 0.0)
 end
  begin
     id 21 
     name lhand
     direction 1 -4.49034e-011 2.38659e-026   
     length 0.707698   
     axis -1.52313e-014 90 90   XYZ
    dof rx rz
    limits (-90.0 90.0)
           (-45.0 45.0)
  end
  begin
     id 22 
     name lfingers
     direction 1 -4.48691e-011 4.77775e-026   
     length 0.570564   
     axis -3.04623e-014 90 90   XYZ
    dof rx
    limits (0.0 90.0)
  end
  begin
     id 23
     name lthumb
     direction 0.707107 -6.34832e-011 0.707107   
     length 0.819219   
     axis -90 45 -1.62303e-014   XYZ
    dof rx rz
    limits (-45.0 45.0)
           (-45.0 45.0)
  end
  begin
     id 24 
     name rclavicle
     direction -0.815579 0.573708 -0.0754329   
     length 3.54371  
     axis 0 0 0   XYZ 
    dof ry rz
    limits (-10.0 20.0)
           (-20.0 0.0)
  end
  begin
     id 25 
     name rhumerus
     direction -1 -4.48956e-011 3.05351e-028  
     length 5.23924   
     axis 180 30 90   XYZ
    dof rx ry rz
    limits (-90.0 60.0)
           (-90.0 90.0)
           (-90.0 90.0)
  end
  begin
     id 26 
     name rradius
     direction -1 -4.49013e-011 3.53849e-027   
     length 3.32953   
     axis 180 30 90   XYZ
    dof rx
    limits (-10.0 170.0)
  end
  begin
     id 27 
     name rwrist
     direction -1 -4.48901e-011 1.19374e-026   
     length 1.66477   
     axis -8.46377e-015 -90 -90   XYZ
    dof ry
    limits (-180.0 0.0)
  end
  begin
     id 28
     name rhand
     direction -1 -4.48877e-011 2.38764e-026   
     length 0.607414   
     axis -1.52313e-014 -90 -90   XYZ
    dof rx rz
    limits (-90.0 90.0)
           (-45.0 45.0)
  end
  begin
     id 29
     name rfingers
     direction -1 -4.48882e-011 4.77521e-026   
     length 0.489712   
     axis -3.04623e-014 -90 -90   XYZ
    dof rx
    limits (0.0 90.0)
  end
  begin
     id 30
     name rthumb
     direction -0.707107 -6.34974e-011 0.707107   
     length 0.703132   
     axis -90 -45 1.62303e-014   XYZ
    dof rx rz
    limits (-45.0 45.0)
           (-45.0 45.0)
  end
:hierarchy
  begin
    root lhipjoint rhipjoint lowerback
    lhipjoint lfemur
    lfemur ltibia
    ltibia lfoot
    lfoot ltoes
    rhipjoint rfemur
    rfemur rtibia
    rtibia rfoot
    rfoot rtoes
    lowerback upperback
    upperback thorax
    thorax lowerneck lclavicle rclavicle
    lowerneck upperneck
    upperneck head
    lclavicle lhumerus
    lhumerus lradius
    lradius lwrist
    lwrist lhand lthumb
    lhand lfingers
    rclavicle rhumerus
    rhumerus rradius
    rradius rwrist
    rwrist rhand rthumb
    rhand rfingers
  end

#!OML:ASF E:\VariousWalksJay\Project 1\Capture day 1\Session 1\Actor2.ASF
:FULLY-SPECIFIED
:DEGREES
345
root 16.9586 16.1828 -4.88081 25.1448 -50.195 -6.81348
lowerback 29.7952 -1.37835 2.11888
upperback 15.2711 -2.20616 -2.73393
thorax 0.733553 -1.18693 -3.61189
lowerneck 2.15852 3.10066 3.86588
upperneck -19.8507 4.27016 -1.15972
head -6.26175 1.7996 -1.25879
rclavicle 3.81667e-014 -5.24792e-014
rhumerus -27.1127 29.5781 -83.7478
rradius 96.9449
rwrist 8.815
rhand -39.0332 2.18227
rfingers 7.12502
rthumb -12.0356 -27.4516
lclavicle 3.81667e-014 -5.24792e-014
lhumerus 47.7438 -26.2049 37.948
lradius 83.7953
lwrist 45.9882
lhand -36.2994 8.33287
lfingers 7.12502
lthumb -9.3987 38.1033
rfemur -45.9904 -0.423904 17.0507
rtibia 92.437
rfoot -8.98777 -7.12601
rtoes -17.6774
lfemur -62.125 16.7664 -32.4914
ltibia 48.7742
lfoot -18.3618 1.78216
ltoes -16.2855
346
root 16.9515 16.1241 -4.83493 24.4075 -50.0841 -6.23012
lowerback 30.4843 -1.42024 1.91929
upperback 15.4479 -2.32094 -2.7953
thorax 0.631765 -1.25753 -3.5251
lowerneck 2.00062 3.0825 3.87565
upperneck -20.1429 4.23202 -1.17886
head -6.32791 1.77276 -1.2653
rclavicle 3.02153e-014 -1.16488e-013
rhumerus -25.8129 29.71 -83.2986
rradius 98.4639
rwrist 8.50694
rhand -38.5517 1.36868
rfingers 7.12502
rthumb -11.5713 -28.2919
lclavicle 3.02153e-014 -1.16488e-013
lhumerus 48.8029 -24.5035 37.2009
lradius 83.6842
lwrist 46.8478
lhand -36.1241 8.76522
lfingers 7.12502
lthumb -9.22959 38.5432
rfemur -48.4833 -0.779229 17.0131
rtibia 95.438
rfoot -10.1417 -7.82172
rtoes -17.8787
lfemur -62.2235 16.6184 -32.9273
ltibia 49.8051
lfoot -18.9596 1.85475
ltoes -16.7084
347
root 16.9443 16.0623 -4.78905 23.7304 -49.9456 -5.70546
lowerback 31.1617 -1.47635 1.77346
upperback 15.6224 -2.4413 -2.84697
thorax 0.535845 -1.32778 -3.45582
lowerneck 1.855 3.06183 3.88201
upperneck -20.441 4.19063 -1.19719
head -6.39844 1.74427 -1.27114
rclavicle 4.29375e-014 4.65156e-014
rhumerus -24.4548 29.8518 -82.8076
rradius 99.94
rwrist 8.15186
rhand -38.0544 0.581199
rfingers 7.12502
rthumb -11.0918 -29.1057
lclavicle 4.29375e-014 4.65156e-014
lhumerus 49.8333 -22.7882 36.5242
lradius 83.5391
lwrist 47.7011
lhand -35.9338 9.18245
lfingers 7.12502
lthumb -9.04593 38.9685
rfemur -51.0345 -1.14122 17.0456
rtibia 98.2232
rfoot -11.3088 -8.42871
rtoes -18.191
lfemur -62.3716 16.4776 -33.3361
ltibia 50.8819
lfoot -19.5295 1.90565
ltoes -16.9222
348
root 16.9369 15.9972 -4.74236 23.1077 -49.7894 -5.22985
lowerback 31.8236 -1.54508 1.67475
upperback 15.7904 -2.5656 -2.89115
thorax 0.442131 -1.39712 -3.40303
lowerneck 1.72506 3.03846 3.8836
upperneck -20.7412 4.14504 -1.21886
head -6.4727 1.71428 -1.27735
rclavicle 1.43125e-014 -6.16232e-014
rhumerus -23.0457 30.0094 -82.2745
rradius 101.363
rwrist 7.7385
rhand -37.5539 -0.177664
rfingers 7.12502
rthumb -10.609 -29.8899
lclavicle 1.43125e-014 -6.16232e-014
lhumerus 50.8307 -21.0808 35.9336
lradius 83.3507
lwrist 48.5106
lhand -35.7468 9.57167
lfingers 7.12502
lthumb -8.86549 39.3654
rfemur -53.6358 -1.49497 17.1273
rtibia 100.777
rfoot -12.4746 -8.89762
rtoes -18.5174
lfemur -62.5681 16.3566 -33.7367
ltibia 52.0038
lfoot -20.0821 1.92328
ltoes -16.9242
349
root 16.9289 15.929 -4.69481 22.5387 -49.6219 -4.80049
lowerback 32.8699 -1.63365 1.59951
upperback 15.7529 -2.68214 -3.02957
thorax 0.146536 -1.46149 -3.23128
lowerneck 1.60859 3.015 3.87565
upperneck -21.0372 4.09926 -1.23947
head -6.54837 1.68496 -1.28184
rclavicle 3.97569e-014 4.29375e-014
rhumerus -21.5914 30.1902 -81.7036
rradius 102.724
rwrist 7.26549
rhand -37.0657 -0.919756
rfingers 7.12502
rthumb -10.138 -30.6555
lclavicle 3.97569e-014 4.29375e-014
lhumerus 51.7889 -19.3883 35.421
lradius 83.1196
lwrist 49.2567
lhand -35.5648 9.9357
lfingers 7.12502
lthumb -8.68981 39.7368
rfemur -56.2817 -1.82912 17.2561
rtibia 103.086
rfoot -13.5978 -9.23903
rtoes -18.9857
lfemur -62.8134 16.267 -34.1363
ltibia 53.1695
lfoot -20.6192 1.88987
ltoes -16.7167
350
root 16.9203 15.8571 -4.64642 22.01 -49.4476 -4.39938
lowerback 33.5132 -1.72237 1.5685
upperback 15.8809 -2.81111 -3.07001
thorax 0.0458929 -1.52783 -3.2044
lowerneck 1.51569 2.98911 3.87011
upperneck -21.3313 4.05173 -1.25861
head -6.62783 1.6546 -1.28658
rclavicle 2.22639e-014 -8.5875e-014
rhumerus -20.1137 30.3781 -81.1066
rradius 104.018
rwrist 6.74843
rhand -36.6118 -1.63005
rfingers 7.12502
rthumb -9.70012 -31.3867
lclavicle 2.22639e-014 -8.5875e-014
lhumerus 52.7188 -17.7339 34.9729
lradius 82.8475
lwrist 49.9441
lhand -35.3876 10.2656
lfingers 7.12502
lthumb -8.51881 40.0737
rfemur -58.9694 -2.13678 17.4169
rtibia 105.146
rfoot -14.6546 -9.45946
rtoes -19.5764
lfemur -63.1074 16.2163 -34.5523
ltibia 54.3741
lfoot -21.1451 1.79596
ltoes -16.3484
